<svg xmlns="http://www.w3.org/2000/svg" version="1.1" xmlns:xlink="http://www.w3.org/1999/xlink" xmlns:svgjs="http://svgjs.dev/svgjs" viewBox="0 0 8.384442994977412 8.767577882829753"><g transform="matrix(1,0,0,1,0.7144535531527687,6.9881243296769835)"><rect width="8.767577882829753" height="8.767577882829753" x="-0.9060209970789397" y="-6.9881243296769835" fill="#efe0e2"></rect><g><path d=" M 1.176 1.0574999999999999 L 1.1745 0.15899999999999992 L 0.735 0.9179999999999999 L 0.6975 0.9179999999999999 L 0.258 0.1619999999999998 L 0.258 1.0574999999999999 L 0.183 1.0574999999999999 L 0.183 0.00749999999999984 L 0.2475 0.00749999999999984 L 0.717 0.8189999999999998 L 1.1865 0.00749999999999984 L 1.2495 0.00749999999999984 L 1.2510000000000001 1.0574999999999999 L 1.176 1.0574999999999999 M 1.673240478515625 1.0252499999999998 Q 1.568990478515625 0.9854999999999998 1.510490478515625 0.9224999999999999 L 1.544990478515625 0.8654999999999999 Q 1.600490478515625 0.9239999999999999 1.694240478515625 0.9607499999999999 Q 1.787990478515625 0.9974999999999998 1.891490478515625 0.9974999999999998 Q 2.041490478515625 0.9974999999999998 2.117990478515625 0.9404999999999999 Q 2.194490478515625 0.8834999999999998 2.194490478515625 0.7919999999999998 Q 2.194490478515625 0.7214999999999998 2.1539904785156248 0.6794999999999999 Q 2.113490478515625 0.6375 2.053490478515625 0.6149999999999999 Q 1.9934904785156249 0.5924999999999998 1.891490478515625 0.5684999999999999 Q 1.775990478515625 0.5399999999999999 1.706240478515625 0.5129999999999999 Q 1.6364904785156251 0.4859999999999999 1.587740478515625 0.42974999999999985 Q 1.538990478515625 0.37349999999999983 1.538990478515625 0.2789999999999999 Q 1.538990478515625 0.2024999999999999 1.579490478515625 0.13874999999999982 Q 1.619990478515625 0.07499999999999984 1.703240478515625 0.03749999999999987 Q 1.786490478515625 -2.220446049250313e-16 1.910990478515625 -2.220446049250313e-16 Q 1.997990478515625 -2.220446049250313e-16 2.081990478515625 0.025499999999999856 Q 2.165990478515625 0.050999999999999934 2.227490478515625 0.09449999999999992 L 2.198990478515625 0.15599999999999992 Q 2.135990478515625 0.11249999999999982 2.0602404785156248 0.08999999999999986 Q 1.984490478515625 0.0674999999999999 1.910990478515625 0.0674999999999999 Q 1.7654904785156251 0.0674999999999999 1.690490478515625 0.1259999999999999 Q 1.615490478515625 0.1844999999999999 1.615490478515625 0.27749999999999986 Q 1.615490478515625 0.34799999999999986 1.655990478515625 0.3899999999999999 Q 1.696490478515625 0.43199999999999983 1.756490478515625 0.4544999999999999 Q 1.816490478515625 0.47699999999999987 1.919990478515625 0.5024999999999998 Q 2.035490478515625 0.5309999999999999 2.104490478515625 0.5579999999999998 Q 2.173490478515625 0.5849999999999999 2.222240478515625 0.6397499999999998 Q 2.2709904785156247 0.6944999999999999 2.2709904785156247 0.7874999999999999 Q 2.2709904785156247 0.8639999999999999 2.229740478515625 0.9269999999999998 Q 2.188490478515625 0.9899999999999999 2.102990478515625 1.0274999999999999 Q 2.017490478515625 1.065 1.892990478515625 1.065 Q 1.7774904785156251 1.065 1.673240478515625 1.0252499999999998 M 3.180003662109375 0.7619999999999999 L 2.571003662109375 0.7619999999999999 L 2.437503662109375 1.0574999999999999 L 2.355003662109375 1.0574999999999999 L 2.838003662109375 0.00749999999999984 L 2.914503662109375 0.00749999999999984 L 3.397503662109375 1.0574999999999999 L 3.3150036621093752 1.0574999999999999 L 3.180003662109375 0.7619999999999999 M 3.1515036621093753 0.6974999999999999 L 2.875503662109375 0.09149999999999991 L 2.601003662109375 0.6974999999999999 L 3.1515036621093753 0.6974999999999999 M 3.588029296875 0.00749999999999984 L 4.003529296875 0.00749999999999984 Q 4.1670292968750005 0.00749999999999984 4.293779296875 0.07499999999999984 Q 4.420529296875 0.14249999999999985 4.491029296875 0.2617499999999998 Q 4.561529296875 0.3809999999999999 4.561529296875 0.5324999999999999 Q 4.561529296875 0.6839999999999999 4.491029296875 0.8032499999999998 Q 4.420529296875 0.9224999999999999 4.293779296875 0.9899999999999999 Q 4.1670292968750005 1.0574999999999999 4.003529296875 1.0574999999999999 L 3.588029296875 1.0574999999999999 L 3.588029296875 0.00749999999999984 M 3.9975292968750002 0.9884999999999999 Q 4.1430292968749995 0.9884999999999999 4.254029296875 0.9307499999999999 Q 4.365029296875 0.8729999999999999 4.425029296875 0.7694999999999999 Q 4.485029296875 0.6659999999999999 4.485029296875 0.5324999999999999 Q 4.485029296875 0.3989999999999999 4.425029296875 0.2954999999999999 Q 4.365029296875 0.19199999999999984 4.254029296875 0.13424999999999987 Q 4.1430292968749995 0.0764999999999999 3.9975292968750002 0.0764999999999999 L 3.664529296875 0.0764999999999999 L 3.664529296875 0.9884999999999999 L 3.9975292968750002 0.9884999999999999 M 4.993512451171875 0.9952499999999999 Q 4.869012451171875 0.9254999999999999 4.797762451171875 0.8039999999999998 Q 4.726512451171875 0.6824999999999999 4.726512451171875 0.5324999999999999 Q 4.726512451171875 0.38249999999999984 4.797762451171875 0.2609999999999999 Q 4.869012451171875 0.13949999999999985 4.993512451171875 0.06974999999999987 Q 5.118012451171875 -2.220446049250313e-16 5.272512451171875 -2.220446049250313e-16 Q 5.427012451171875 -2.220446049250313e-16 5.551512451171875 0.06899999999999984 Q 5.676012451171875 0.1379999999999999 5.747262451171875 0.25949999999999984 Q 5.818512451171875 0.3809999999999999 5.818512451171875 0.5324999999999999 Q 5.818512451171875 0.6839999999999999 5.747262451171875 0.8054999999999999 Q 5.676012451171875 0.9269999999999998 5.551512451171875 0.9959999999999999 Q 5.427012451171875 1.065 5.272512451171875 1.065 Q 5.118012451171875 1.065 4.993512451171875 0.9952499999999999 M 5.511012451171875 0.9344999999999999 Q 5.617512451171875 0.8744999999999998 5.679012451171875 0.7687499999999998 Q 5.740512451171875 0.6629999999999998 5.740512451171875 0.5324999999999999 Q 5.740512451171875 0.4019999999999999 5.679012451171875 0.2962499999999999 Q 5.617512451171875 0.1904999999999999 5.511012451171875 0.13049999999999984 Q 5.404512451171875 0.0704999999999999 5.272512451171875 0.0704999999999999 Q 5.140512451171875 0.0704999999999999 5.033262451171875 0.13049999999999984 Q 4.926012451171875 0.1904999999999999 4.864512451171875 0.2962499999999999 Q 4.803012451171875 0.4019999999999999 4.803012451171875 0.5324999999999999 Q 4.803012451171875 0.6629999999999998 4.864512451171875 0.7687499999999998 Q 4.926012451171875 0.8744999999999998 5.033262451171875 0.9344999999999999 Q 5.140512451171875 0.9944999999999999 5.272512451171875 0.9944999999999999 Q 5.404512451171875 0.9944999999999999 5.511012451171875 0.9344999999999999 M 6.396031494140625 0.5399999999999999 L 6.160531494140625 0.7814999999999999 L 6.160531494140625 1.0574999999999999 L 6.084031494140625 1.0574999999999999 L 6.084031494140625 0.00749999999999984 L 6.160531494140625 0.00749999999999984 L 6.160531494140625 0.6824999999999999 L 6.816031494140625 0.00749999999999984 L 6.909031494140625 0.00749999999999984 L 6.447031494140625 0.4844999999999998 L 6.940531494140625 1.0574999999999999 L 6.847531494140625 1.0574999999999999 L 6.396031494140625 0.5399999999999999" fill="#382d5e" fill-rule="nonzero"></path></g><g></g><g clip-path="url(#SvgjsClipPath1003)"><g clip-path="url(#SvgjsClipPath1001a41fab5d-ece4-41e4-bb66-4fc47e549aa4)"><path d=" M 3.6362808408201728 -0.7758664587905644 C 5.112080181068605 -0.7758664587905644 6.30844143399408 -1.9806006140954073 6.30844143399408 -3.46709196997217 C 6.30844143399408 -4.953583325848934 5.112080181068605 -6.158347599507659 3.6362808408201728 -6.158347599507659 C 2.16048150057174 -6.158347599507659 0.9641202476462654 -4.95343273407952 0.9641202476462654 -3.46709196997217 C 0.9641202476462654 -1.9807512058648205 2.1605116189256224 -0.7758664587905644 3.6362808408201728 -0.7758664587905644 Z M 3.6362808408201728 -0.6846379648801051 C 5.162106766867639 -0.6846379648801051 6.399007324119122 -1.9303933181730781 6.399007324119122 -3.46709196997217 C 6.399007324119122 -5.003790621771263 5.162106766867639 -6.249576093418119 3.6362808408201728 -6.249576093418119 C 2.1104549147727063 -6.249576093418119 0.8735543575212237 -5.003820740125145 0.8735543575212237 -3.46709196997217 C 0.8735543575212237 -1.9303631998191952 2.110394678064941 -0.6846379648801051 3.6362808408201728 -0.6846379648801051 Z" fill="#382d5e" transform="matrix(1,0,0,1,0,0)" fill-rule="evenodd"></path></g><g clip-path="url(#SvgjsClipPath1001a41fab5d-ece4-41e4-bb66-4fc47e549aa4)"><path d=" M 3.2286590393727788 -0.6846379648801051 C 4.704458379621211 -0.6846379648801051 5.9008196325466855 -1.8893721201849485 5.9008196325466855 -3.3758634760617117 C 5.9008196325466855 -4.862354831938474 4.704458379621212 -6.0671191055972 3.2286590393727788 -6.0671191055972 C 1.7528596991243457 -6.0671191055972 0.5565285645527542 -4.862204240169061 0.5565285645527542 -3.3758634760617117 C 0.5565285645527542 -1.8895227119543612 1.7528898174782286 -0.6846379648801051 3.2286590393727788 -0.6846379648801051 Z M 3.2286590393727788 -0.5934094709696467 C 4.754484965420245 -0.5934094709696467 5.991415641025609 -1.8391648242626188 5.991415641025609 -3.3758634760617117 C 5.991415641025609 -4.912562127860804 4.754484965420245 -6.158347599507659 3.2286590393727788 -6.158347599507659 C 1.7028331133253127 -6.158347599507659 0.4659325560738301 -4.912592246214686 0.4659325560738301 -3.3758634760617117 C 0.4659325560738301 -1.839134705908736 1.7028632316791952 -0.59334923426188 3.2286590393727788 -0.59334923426188 Z" fill="#382d5e" transform="matrix(1,0,0,1,0,0)" fill-rule="evenodd"></path></g><g clip-path="url(#SvgjsClipPath1001a41fab5d-ece4-41e4-bb66-4fc47e549aa4)"><path d=" M 3.7268768492990967 -0.36532317701655703 C 5.20267618954753 -0.36532317701655703 6.399007324119122 -1.5702380424446951 6.399007324119122 -3.0565788065520447 C 6.399007324119122 -4.542919570659395 5.202646071193647 -5.747804317733651 3.7268768492990967 -5.747804317733651 C 2.2511076274045463 -5.747804317733651 1.0547162561251895 -4.542889452305513 1.0547162561251895 -3.0565788065520456 C 1.0547162561251895 -1.570268160798578 2.251077509050664 -0.36532317701655703 3.7268768492990967 -0.36532317701655703 Z M 3.7268768492990967 -0.27409468310609775 C 5.252672656992679 -0.27409468310609775 6.489603332598046 -1.5198500363990703 6.489603332598046 -3.0565788065520456 C 6.489603332598046 -4.593307576705021 5.252672656992681 -5.8390629299979935 3.7268768492990967 -5.8390629299979935 C 2.2010810416055127 -5.8390629299979935 0.9641202476462651 -4.593277458351138 0.9641202476462651 -3.0565788065520456 C 0.9641202476462651 -1.5198801547529528 2.20105092325163 -0.27409468310609775 3.7268768492990967 -0.27409468310609775 Z" fill="#382d5e" transform="matrix(1,0,0,1,0,0)" fill-rule="evenodd"></path></g><path d=" M 2.4380432063982784 -2.064148879094209 C 2.393059675537512 -2.064148879094209 2.3552326154955043 -2.079484173705833 2.324562026272255 -2.110154762929083 C 2.2938914370490053 -2.140825352152333 2.27855614243738 -2.178652412194341 2.27855614243738 -2.2236359430551067 L 2.27855614243738 -4.300034833469109 C 2.27855614243738 -4.347063070278091 2.2938914370490053 -4.385401306807154 2.324562026272255 -4.415049543056295 C 2.3552326154955043 -4.444697779305437 2.393059675537512 -4.459521897430007 2.4380432063982784 -4.459521897430007 C 2.499384384844778 -4.459521897430007 2.5464126216537606 -4.430896014154974 2.579127916825227 -4.373644247604908 L 3.5391173595129413 -2.4505983033071543 L 3.4409714739985424 -2.4505983033071543 L 4.3764244453076575 -4.373644247604908 C 4.409139740479123 -4.430896014154974 4.456167977288106 -4.459521897430007 4.517509155734605 -4.459521897430007 C 4.562492686595371 -4.459521897430007 4.600319746637379 -4.444697779305437 4.630990335860629 -4.415049543056295 C 4.661660925083879 -4.385401306807154 4.6769962196955035 -4.347063070278091 4.6769962196955035 -4.300034833469109 L 4.6769962196955035 -2.2236359430551067 C 4.6769962196955035 -2.178652412194341 4.6611497485968245 -2.140825352152333 4.629456806399467 -2.110154762929083 C 4.597763864202109 -2.079484173705833 4.5604479806471545 -2.064148879094209 4.517509155734605 -2.064148879094209 C 4.472525624873839 -2.064148879094209 4.434698564831832 -2.079484173705833 4.404027975608582 -2.110154762929083 C 4.373357386385332 -2.140825352152333 4.358022091773707 -2.178652412194341 4.358022091773707 -2.2236359430551067 L 4.358022091773707 -3.8583783486543135 L 4.419363270220206 -3.8737136432659387 L 3.6157938325710655 -2.2359041787444065 C 3.5810338314513825 -2.182741824090774 3.5350279476165083 -2.1561606467639574 3.4777761810664423 -2.1561606467639574 C 3.410300884775293 -2.1561606467639574 3.3612279420180933 -2.1878535889613158 3.3305573527948438 -2.2512394733560317 L 2.5361890919126777 -3.8430430540426888 L 2.5975302703591767 -3.8583783486543135 L 2.5975302703591767 -2.2236359430551067 C 2.5975302703591767 -2.178652412194341 2.582194975747552 -2.140825352152333 2.5515243865243025 -2.110154762929083 C 2.5208537973010525 -2.079484173705833 2.4830267372590447 -2.064148879094209 2.4380432063982784 -2.064148879094209" fill="#382d5e" transform="matrix(1,0,0,1,0,0)" fill-rule="nonzero"></path></g></g><defs><clipPath id="SvgjsClipPath1003"><path d=" M 0.4659325560738301 -6.273670776524215 h 6.023670776524215 v 6.023670776524215 h -6.023670776524215 Z"></path></clipPath><clipPath id="SvgjsClipPath1001a41fab5d-ece4-41e4-bb66-4fc47e549aa4"><path d=" M 0.4659325560738301 -6.249576093418119 L 6.489603332598046 -6.249576093418119 L 6.489603332598046 -0.27409468310609775 L 0.4659325560738301 -0.27409468310609775 Z"></path></clipPath></defs></svg>